<?xml version="1.0" standalone="no"?>
<!DOCTYPE svg PUBLIC "-//W3C//DTD SVG 20010904//EN"
 "http://www.w3.org/TR/2001/REC-SVG-20010904/DTD/svg10.dtd">
<svg version="1.0" xmlns="http://www.w3.org/2000/svg"
 width="700.000000pt" height="700.000000pt" viewBox="0 0 700.000000 700.000000"
 preserveAspectRatio="xMidYMid meet">
<metadata>
Created by potrace 1.14, written by Peter Selinger 2001-2017
</metadata>
<g transform="translate(0.000000,700.000000) scale(0.100000,-0.100000)"
fill="#000000" stroke="none">
<path d="M777 4812 l-28 -3 6 -122 c5 -119 7 -136 20 -242 53 -446 232 -833
515 -1115 46 -46 130 -120 211 -185 30 -24 183 -121 265 -168 99 -57 323 -165
504 -242 187 -80 345 -157 434 -210 134 -82 219 -186 231 -286 3 -23 7 -45 10
-48 2 -4 57 -7 122 -6 l118 1 7 49 c3 28 14 68 23 89 23 55 126 154 213 205
l72 43 71 -43 c144 -86 225 -186 238 -292 l6 -52 119 0 c73 0 120 3 122 10 2
5 5 21 8 35 14 85 41 134 106 199 85 84 235 165 605 326 466 203 703 348 927
567 224 219 389 512 468 833 16 66 32 134 35 150 3 17 7 40 9 52 5 24 15 110
22 188 3 28 6 99 7 158 l2 109 -123 1 -122 2 -1 -85 c0 -47 -2 -94 -3 -105 -2
-11 -6 -56 -10 -100 -13 -163 -66 -385 -129 -535 -39 -94 -88 -191 -112 -220
-6 -8 -14 -22 -17 -30 -8 -22 -114 -154 -174 -216 -43 -46 -86 -84 -175 -160
-130 -109 -427 -267 -785 -419 -243 -103 -465 -222 -546 -293 -18 -15 -49 -45
-70 -68 l-38 -40 -58 56 c-31 31 -70 65 -86 76 l-28 20 178 79 c314 138 498
240 673 369 278 207 477 464 602 776 38 97 88 271 105 370 4 25 8 47 9 50 1 6
14 92 20 135 3 17 7 93 10 170 4 77 8 146 10 153 3 6 1 12 -3 12 -4 1 -60 2
-125 3 -98 2 -117 0 -118 -13 -1 -8 -2 -46 -4 -85 -3 -82 -14 -217 -21 -260
-19 -117 -28 -162 -50 -250 -108 -417 -365 -750 -756 -978 -162 -94 -249 -137
-543 -267 -22 -9 -88 -39 -147 -65 l-107 -48 -108 48 c-59 26 -132 58 -161 71
-29 13 -80 36 -115 50 -69 29 -289 138 -352 174 -22 13 -51 29 -65 36 -48 25
-182 121 -263 189 -268 225 -460 563 -521 915 -2 14 -7 41 -10 60 -12 70 -14
89 -22 176 -4 49 -8 124 -8 166 -1 62 -4 78 -16 78 -111 4 -221 2 -226 -3 -7
-6 -6 -148 1 -217 2 -19 6 -65 10 -102 3 -37 7 -75 9 -85 5 -29 15 -85 21
-123 33 -197 134 -463 243 -638 231 -372 548 -611 1171 -883 l144 -62 -29 -21
c-16 -11 -53 -44 -83 -73 -30 -29 -56 -53 -59 -53 -2 0 -30 25 -61 55 -31 31
-90 78 -131 106 -90 61 -326 177 -545 269 -149 63 -408 191 -507 252 -251 153
-445 339 -574 553 -34 56 -114 220 -114 234 0 5 -9 30 -20 56 -11 25 -22 56
-24 68 -3 12 -14 58 -25 102 -31 127 -50 269 -57 420 -4 77 -8 141 -9 143 -4
4 -186 7 -218 4z"/>
</g>
</svg>
